HIERARCHY
ROOT SimulationBone
{
	OFFSET 0.000000 0.000000 0.000000
	CHANNELS 6 Xposition Yposition Zposition Zrotation Yrotation Xrotation 
	JOINT Hips
	{
		OFFSET 0.000000 0.000000 0.000000
		CHANNELS 6 Xposition Yposition Zposition Zrotation Yrotation Xrotation 
		JOINT RightUpLeg
		{
			OFFSET 0.103456 1.857832 10.548506
			CHANNELS 3 Zrotation Yrotation Xrotation
			JOINT RightLeg
			{
				OFFSET 43.499996 -0.000050 0.000004
				CHANNELS 3 Zrotation Yrotation Xrotation
				JOINT RightFoot
				{
					OFFSET 42.372196 0.000023 -0.000001
					CHANNELS 3 Zrotation Yrotation Xrotation
					JOINT RightToe
					{
						OFFSET 17.299999 -0.000001 0.000005
						CHANNELS 3 Zrotation Yrotation Xrotation
						End Site
						{
							OFFSET 0.000000 0.000000 0.000000
						}
					}
				}
			}
		}
		JOINT LeftUpLeg
		{
			OFFSET 0.103461 1.857838 -10.548502
			CHANNELS 3 Zrotation Yrotation Xrotation
			JOINT LeftLeg
			{
				OFFSET 43.500053 -0.000023 0.000017
				CHANNELS 3 Zrotation Yrotation Xrotation
				JOINT LeftFoot
				{
					OFFSET 42.372261 -0.000019 0.000013
					CHANNELS 3 Zrotation Yrotation Xrotation
					JOINT LeftToe
					{
						OFFSET 17.299999 -0.000002 0.000004
						CHANNELS 3 Zrotation Yrotation Xrotation
						End Site
						{
							OFFSET 0.000000 0.000000 0.000000
						}
					}
				}
			}
		}
		JOINT Spine
		{
			OFFSET 6.901962 -2.603720 0.000005
			CHANNELS 3 Zrotation Yrotation Xrotation
			JOINT Spine1
			{
				OFFSET 12.588104 -0.000017 -0.000004
				CHANNELS 3 Zrotation Yrotation Xrotation
				JOINT Spine2
				{
					OFFSET 12.343203 0.000008 0.000001
					CHANNELS 3 Zrotation Yrotation Xrotation
					JOINT Neck
					{
						OFFSET 25.832893 0.000002 -0.000003
						CHANNELS 3 Zrotation Yrotation Xrotation
						JOINT Head
						{
							OFFSET 11.766610 0.000004 -0.000002
							CHANNELS 3 Zrotation Yrotation Xrotation
							End Site
							{
								OFFSET 0.000000 0.000000 0.000000
							}
						}
					}
					JOINT RightShoulder
					{
						OFFSET 19.745901 -1.480358 6.000100
						CHANNELS 3 Zrotation Yrotation Xrotation
						JOINT RightArm
						{
							OFFSET 11.284128 -0.000004 -0.000015
							CHANNELS 3 Zrotation Yrotation Xrotation
							JOINT RightForeArm
							{
								OFFSET 33.000053 0.000025 0.000029
								CHANNELS 3 Zrotation Yrotation Xrotation
								JOINT RightHand
								{
									OFFSET 25.200005 0.000009 -0.000002
									CHANNELS 3 Zrotation Yrotation Xrotation
									End Site
									{
										OFFSET 0.000000 0.000000 0.000000
									}
								}
							}
						}
					}
					JOINT LeftShoulder
					{
						OFFSET 19.746098 -1.480389 -6.000077
						CHANNELS 3 Zrotation Yrotation Xrotation
						JOINT LeftArm
						{
							OFFSET 11.284138 -0.000023 -0.000010
							CHANNELS 3 Zrotation Yrotation Xrotation
							JOINT LeftForeArm
							{
								OFFSET 33.000103 0.000022 0.000003
								CHANNELS 3 Zrotation Yrotation Xrotation
								JOINT LeftHand
								{
									OFFSET 25.199776 0.000131 0.000429
									CHANNELS 3 Zrotation Yrotation Xrotation
									End Site
									{
										OFFSET 0.000000 0.000000 0.000000
									}
								}
							}
						}
					}
				}
			}
		}
	}
}
MOTION
Frames: 14
Frame Time: 0.016667
189.787524 0.000000 427.335851 180.000000 -79.516179 180.000000 -0.999114 94.150569 -4.786753 92.358855 -9.758978 -179.866740 159.299125 4.147891 -174.985389 -38.516463 0.112670 -6.529038 72.618581 3.003705 -5.747462 21.454557 0.003109 0.000016 -174.820347 -2.125543 -167.166100 -32.437132 -2.023238 2.279116 69.906199 -2.717934 -3.270931 21.454548 -0.003093 0.000003 8.581813 -0.591041 1.371949 7.136296 -1.265267 2.705070 6.818490 -1.249058 2.712650 -10.654034 1.505205 -9.147067 2.238857 5.531308 -9.213933 153.256771 -72.034279 26.170658 26.083729 52.306087 34.338583 -97.777318 -0.668572 2.741810 3.410188 -7.815456 36.797272 179.557857 72.039513 0.863965 2.125860 -55.635841 -18.994043 -105.238145 -2.445034 -2.811279 2.782850 13.260577 -6.641722 
189.282970 0.000000 430.428508 180.000000 -78.220843 180.000000 -0.847126 94.479797 -4.359191 92.120537 -8.920715 -179.444627 159.229837 2.658099 -175.388685 -33.057660 -0.293931 -5.165076 71.671121 1.369281 -7.728426 21.454557 0.003116 0.000017 -174.143528 -3.109295 -167.502330 -33.681776 -2.591433 2.640355 67.489044 -2.256850 -1.076364 21.454553 -0.003101 0.000003 8.492125 -0.483074 1.333850 6.959678 -1.045199 2.636395 6.641883 -1.029401 2.642650 -11.114644 1.467943 -8.938483 2.033487 5.839856 -9.082972 152.678987 -72.694389 26.719816 27.555984 51.978227 35.884795 -98.524986 -0.499071 2.763568 4.344382 -7.286094 36.712310 178.971898 72.407228 0.269100 4.164101 -55.145603 -21.943022 -106.529298 -2.751176 -2.846891 2.496771 12.347326 -6.392704 
188.756378 0.000000 433.493091 180.000000 -76.873782 180.000000 -0.633369 94.544591 -3.991280 92.289323 -8.322751 -178.949629 159.728524 1.593536 -175.514257 -28.077541 -0.912972 -4.289841 70.041630 0.078648 -9.442863 21.454559 0.003116 0.000018 -173.392382 -3.933854 -168.520495 -35.797297 -2.810269 3.845060 66.545296 -2.014779 1.971518 21.454554 -0.003100 0.000001 8.510193 -0.426508 1.251291 6.997737 -0.927644 2.474625 6.679916 -0.912820 2.480174 -11.629130 1.721124 -8.833889 1.790519 5.924927 -8.904509 151.858389 -73.298380 27.519610 28.701082 51.526967 37.002617 -99.178496 -0.259962 2.776211 4.272601 -7.146183 37.292136 177.850021 72.788796 -0.875619 6.166336 -54.827164 -24.532013 -107.613087 -2.985900 -2.878181 1.907118 11.398443 -6.347123 
188.209942 0.000000 436.515610 180.000000 -75.479917 180.000000 -0.453882 94.342270 -3.748282 92.649932 -8.199815 -178.479923 160.351491 1.166702 -175.387947 -24.144565 -1.734217 -3.936882 68.248164 -0.911157 -11.163872 21.454562 0.003112 0.000019 -172.797885 -4.233095 -169.893101 -38.730191 -2.728086 5.038481 67.275108 -1.965205 4.525685 21.454555 -0.003095 0.000000 8.595091 -0.466833 1.140958 7.167735 -1.003217 2.250949 6.849853 -0.989744 2.256959 -12.297460 2.038941 -8.781876 1.807895 5.942067 -8.713577 151.336199 -73.828583 28.018291 29.207694 50.911365 37.610026 -99.868669 -0.014873 2.789917 3.959792 -7.036320 37.932448 176.996825 73.034601 -1.746284 7.733243 -54.453288 -26.676350 -108.239810 -3.148237 -2.894142 1.219203 10.600278 -6.094029 
187.641111 0.000000 439.491074 180.000000 -74.048428 180.000000 -0.406832 93.857382 -3.659750 92.949215 -8.616423 -178.135732 160.646092 1.359525 -175.250918 -21.782204 -2.670056 -3.908357 66.844450 -1.828181 -13.291993 21.454561 0.003108 0.000018 -172.657386 -3.850766 -171.250225 -42.391648 -2.549423 5.408681 69.600029 -2.041145 5.319530 21.454556 -0.003093 0.000001 8.689326 -0.615199 1.026714 7.354909 -1.294197 2.012461 7.036931 -1.282166 2.020234 -13.066587 2.181050 -8.705818 2.217378 6.073396 -8.553539 151.607109 -74.204971 27.717360 28.912556 50.045074 37.698235 -100.709199 0.173087 2.814357 4.167275 -6.636906 38.007368 177.174793 73.049242 -1.563065 8.516089 -53.825742 -28.334835 -108.232269 -3.233226 -2.887709 0.745494 10.132629 -5.352787 
187.043208 0.000000 442.414998 180.000000 -72.583775 180.000000 -0.414558 93.055321 -3.675928 93.215988 -9.114707 -177.903994 160.722520 1.608190 -175.905375 -20.928693 -3.323127 -3.605116 65.451899 -3.150388 -15.736549 21.454560 0.003106 0.000017 -172.937125 -3.225800 -172.191473 -46.597643 -2.504403 5.044520 72.420351 -1.936627 5.191713 21.454555 -0.003092 0.000000 8.766391 -0.773486 0.931737 7.507974 -1.605593 1.811589 7.189905 -1.594774 1.821250 -13.453419 2.238065 -8.594815 2.555458 6.186682 -8.408103 152.221583 -74.134951 27.094920 28.296376 48.725940 37.367657 -101.473797 0.341071 2.836817 4.282377 -6.373251 37.844923 177.856705 73.030878 -0.862837 8.800112 -53.201544 -29.718439 -107.942587 -3.196229 -2.877861 0.919366 9.942227 -4.571231 
186.408312 0.000000 445.278510 180.000000 -71.087208 180.000000 -0.373404 91.934143 -3.757511 93.567828 -9.314764 -177.781335 160.822805 1.479290 -177.944836 -21.487459 -3.359713 -2.605565 63.988332 -4.995182 -17.873341 21.454558 0.003107 0.000016 -173.497028 -2.721758 -172.491814 -51.155265 -2.727031 4.298521 74.679549 -1.449248 5.331608 21.454546 -0.003089 -0.000005 8.817854 -0.860615 0.876507 7.610607 -1.776829 1.694785 7.292495 -1.766709 1.705483 -13.050074 2.357419 -8.467162 2.377800 6.105775 -8.254985 152.513541 -73.473146 26.839201 27.839313 46.922258 36.775314 -101.938435 0.522652 2.844903 3.684221 -6.662487 37.775765 178.402796 73.163453 -0.298488 8.966857 -52.827164 -31.019075 -107.712475 -3.015134 -2.880351 1.979268 9.865083 -4.225671 
185.729777 0.000000 448.074166 180.000000 -69.562090 180.000000 -0.288297 90.641693 -3.938796 94.090014 -9.642047 -177.940044 161.139995 1.613600 179.447812 -23.767740 -2.971784 -1.599237 64.313060 -5.624360 -17.639886 21.454557 0.003109 0.000016 -174.211351 -1.857099 -172.651254 -55.942356 -3.018718 3.589220 76.537296 -0.778628 6.133747 21.454541 -0.003087 -0.000007 8.878349 -0.972670 0.869878 7.730394 -2.001096 1.673146 7.412243 -1.991096 1.685198 -12.180300 2.592240 -8.381603 1.916770 5.784412 -8.092338 152.267782 -72.863252 27.129380 27.382680 45.405632 36.228070 -102.227905 0.639155 2.849682 3.071888 -7.146472 37.218820 178.971706 73.274559 0.288632 9.080547 -52.513676 -32.047506 -107.312400 -2.798162 -2.877918 3.242200 9.576761 -4.201167 
185.003591 0.000000 450.800007 180.000000 -68.013199 180.000000 -0.197180 89.327128 -4.249757 94.767697 -10.509150 -178.500717 161.693653 2.630016 177.279343 -27.932756 -2.460696 -1.364149 68.085761 -3.767179 -13.776768 21.454556 0.003107 0.000016 -175.072428 -0.220604 -173.155113 -60.846181 -3.172154 3.324077 78.454058 -0.307336 7.496342 21.454548 -0.003090 -0.000002 8.974205 -1.203171 0.903529 7.918847 -2.465156 1.723071 7.600593 -2.454845 1.737921 -11.315913 2.902730 -8.353805 1.491432 5.326174 -7.928697 151.617079 -72.867788 27.794032 26.622738 44.830036 35.843770 -102.484849 0.624547 2.862135 3.190783 -7.321658 35.788543 179.771601 73.180784 1.108487 9.070340 -52.085631 -32.528043 -106.472341 -2.639258 -2.852205 3.971037 8.816347 -4.382776 
184.224659 0.000000 453.458711 180.000000 -66.443094 180.000000 -0.132842 87.995064 -4.656609 95.302675 -11.485643 -179.148490 162.103639 3.945604 175.880431 -33.103607 -1.957596 -1.867743 74.088372 -1.415942 -9.714117 21.454558 0.003105 0.000017 -176.453825 1.514210 -173.666275 -65.691987 -3.425372 3.964315 80.850143 -0.740498 8.154487 21.454555 -0.003093 0.000004 9.055347 -1.458173 0.913754 8.078138 -2.976382 1.724139 7.759732 -2.966054 1.742077 -10.787731 2.956829 -8.192429 1.091947 5.310659 -7.799822 151.658297 -72.954565 27.746241 25.463344 44.570641 34.935539 -102.574803 0.574567 2.869628 3.614990 -6.880103 34.867739 -179.487591 73.027388 1.866724 8.695393 -51.847306 -32.264218 -105.332103 -2.443782 -2.815656 4.148337 7.739739 -5.210361 
183.383934 0.000000 456.056051 180.000000 -64.852913 180.000000 -0.126992 86.655751 -5.111665 95.434643 -12.104277 -179.557131 162.139125 4.882239 175.254116 -38.186637 -1.538681 -2.844228 80.220890 -0.041376 -9.045201 21.454561 0.003104 0.000018 -178.672758 2.661642 -173.822357 -70.275310 -3.956516 5.811968 83.906658 -2.479304 6.924012 21.454549 -0.003092 0.000004 9.073648 -1.636807 0.848395 8.114849 -3.328886 1.580651 7.796306 -3.319413 1.600726 -10.779793 2.565057 -7.767741 0.646898 6.094287 -7.718423 153.221894 -72.485483 26.177884 23.917365 43.875429 32.944868 -102.280577 0.562903 2.857124 3.808929 -5.823597 35.588909 -179.110368 72.874904 2.251539 7.761988 -52.006647 -31.157223 -104.064344 -2.094100 -2.782712 4.072038 6.580159 -7.177962 
182.474883 0.000000 458.598662 180.000000 -63.244830 180.000000 -0.212486 85.486526 -5.567537 95.318361 -12.589100 -179.892248 162.339321 5.660300 174.857938 -42.246201 -1.251722 -3.969695 85.492377 0.943462 -10.091279 21.454563 0.003104 0.000018 178.415374 3.514602 -174.013768 -74.284733 -4.506240 8.264979 86.843976 -4.759052 4.366483 21.454543 -0.003090 0.000002 9.063014 -1.798703 0.753840 8.095264 -3.645539 1.380773 7.776575 -3.637263 1.402773 -11.018676 2.407510 -7.385558 0.162174 6.665040 -7.548541 154.923305 -71.507986 24.496686 22.024396 42.844761 30.437897 -101.331210 0.413888 2.825384 3.897364 -5.049656 36.293312 -179.121328 72.097622 2.225062 6.487829 -51.932017 -29.472402 -102.562796 -1.571439 -2.754108 4.511241 5.498077 -10.489407 
181.496752 0.000000 461.092188 180.000000 -61.621494 180.000000 -0.407979 84.687489 -5.962137 95.135449 -13.192581 179.633250 163.252416 6.558219 174.186828 -44.563167 -1.084695 -4.955327 89.416073 1.901045 -10.415510 21.454559 0.003104 0.000017 175.052567 4.375048 -174.705502 -77.327239 -4.859707 10.499878 88.865616 -6.756959 1.542060 21.454545 -0.003092 0.000001 9.059310 -2.001320 0.682336 8.089171 -4.045253 1.223952 7.770289 -4.037921 1.248379 -11.191395 3.060086 -7.324272 -0.293922 6.140050 -7.167050 155.479276 -70.349124 23.996908 19.865403 41.904468 28.138343 -99.524523 -0.061247 2.775408 3.927127 -5.348458 35.407402 -179.378347 70.308662 1.924449 5.319330 -51.175443 -27.701193 -100.772944 -0.919474 -2.723357 5.814630 4.824220 -15.015419 
180.449123 0.000000 463.543687 180.000000 -59.985971 180.000000 -0.697060 84.382698 -6.198958 94.794158 -13.572211 179.146573 164.792042 7.143204 173.357769 -45.182834 -1.053504 -5.733429 91.944044 2.673295 -10.265995 21.454557 0.003104 0.000016 171.506228 4.759090 -175.793893 -78.905145 -4.952997 11.874351 90.332447 -8.000551 -0.747231 21.454553 -0.003095 0.000001 9.024824 -2.133186 0.612409 8.022192 -4.303519 1.076315 7.703168 -4.297078 1.102314 -11.324790 3.833813 -7.291533 -0.473296 5.510589 -6.724684 155.205693 -69.598580 24.323535 17.832987 41.867156 26.415636 -96.987142 -0.857327 2.719687 3.249355 -6.230395 34.458020 -179.536003 68.774517 1.730131 4.782949 -50.833269 -26.466852 -99.127723 -0.332713 -2.688010 6.175647 5.199286 -19.442287 
